<?xml version="1.0" standalone="no"?>
<!DOCTYPE svg PUBLIC "-//W3C//DTD SVG 20010904//EN"
 "http://www.w3.org/TR/2001/REC-SVG-20010904/DTD/svg10.dtd">
<svg version="1.0" xmlns="http://www.w3.org/2000/svg"
 width="512.000000pt" height="512.000000pt" viewBox="0 0 512.000000 512.000000"
 preserveAspectRatio="xMidYMid meet">

<g transform="translate(0.000000,512.000000) scale(0.100000,-0.100000)"
fill="#000000" stroke="none">
<path d="M2673 5110 c-558 -59 -1045 -457 -1228 -1004 -60 -178 -75 -300 -75
-600 0 -261 0 -263 23 -284 23 -21 31 -22 261 -22 141 0 245 4 256 10 32 17
40 76 40 313 0 258 11 334 65 460 93 217 228 362 430 461 135 67 207 86 350
93 375 18 714 -198 859 -548 60 -146 66 -204 66 -630 l0 -379 -1177 0 c-648
-1 -1208 -5 -1245 -9 -157 -21 -281 -121 -329 -268 -18 -54 -19 -114 -19
-1359 l0 -1303 26 -20 27 -21 1834 0 1834 0 24 25 25 24 0 1288 c0 1359 1
1334 -45 1423 -64 126 -162 188 -337 215 l-38 6 0 365 c0 201 -5 408 -11 462
-26 241 -102 452 -240 662 -83 127 -270 314 -399 399 -297 196 -629 277 -977
241z m1745 -2314 c52 -23 115 -92 130 -144 9 -29 12 -355 12 -1266 l0 -1226
-865 0 -865 0 0 65 0 64 394 3 394 3 27 25 27 25 -5 300 c-3 270 -6 307 -25
369 -63 204 -183 368 -349 476 -78 51 -195 104 -255 115 -45 8 -49 20 -10 30
76 19 194 115 259 211 114 170 116 412 4 580 -54 80 -68 95 -143 152 -74 56
-162 90 -255 99 l-63 6 0 62 c0 34 3 65 7 69 4 4 352 5 773 4 721 -3 767 -4
808 -22z m-1477 -292 c257 -77 357 -391 189 -602 -173 -220 -527 -174 -641 82
-130 294 145 611 452 520z m34 -1049 c194 -40 371 -178 459 -355 65 -133 76
-194 76 -442 l0 -208 -172 0 c-95 0 -399 3 -675 7 l-503 6 0 197 c0 108 5 223
11 256 15 83 54 178 106 256 145 221 434 338 698 283z"/>
<path d="M649 3827 c-25 -19 -40 -55 -33 -81 3 -13 61 -78 128 -145 132 -131
150 -139 200 -100 19 15 26 30 26 55 0 31 -12 48 -107 146 -133 135 -171 158
-214 125z"/>
<path d="M428 3343 c-38 -44 -28 -102 22 -123 18 -7 90 -10 210 -8 177 3 182
4 201 27 26 32 24 73 -4 99 -22 21 -32 22 -219 22 -173 0 -197 -2 -210 -17z"/>
<path d="M865 3085 c-43 -18 -242 -224 -251 -259 -10 -42 22 -80 71 -84 37 -3
42 1 162 121 101 102 123 129 123 153 -1 57 -53 92 -105 69z"/>
</g>
</svg>
