<?xml version="1.0" standalone="no"?>
<!DOCTYPE svg PUBLIC "-//W3C//DTD SVG 20010904//EN"
 "http://www.w3.org/TR/2001/REC-SVG-20010904/DTD/svg10.dtd">
<svg version="1.0" xmlns="http://www.w3.org/2000/svg"
 width="512.000000pt" height="512.000000pt" viewBox="0 0 512.000000 512.000000"
 preserveAspectRatio="xMidYMid meet">
<metadata>
Created by potrace 1.16, written by Peter Selinger 2001-2019
</metadata>
<g transform="translate(0.000000,512.000000) scale(0.100000,-0.100000)"
fill="#000000" stroke="none">
<path d="M2405 4693 c-460 -38 -875 -208 -1226 -502 -361 -301 -619 -737 -714
-1204 -155 -763 123 -1563 715 -2059 805 -674 1955 -674 2760 0 361 302 620
738 715 1205 130 640 -39 1301 -464 1808 -354 424 -881 697 -1441 748 -108 10
-253 12 -345 4z m325 -184 c576 -53 1090 -351 1432 -830 88 -123 208 -363 257
-515 162 -497 122 -1008 -114 -1479 -194 -386 -484 -677 -870 -870 -566 -284
-1185 -284 -1750 0 -297 149 -530 350 -727 626 -85 118 -207 360 -254 503
-165 500 -126 1023 110 1491 196 387 486 677 871 870 337 169 687 237 1045
204z"/>
<path d="M2435 3880 c-353 -55 -634 -313 -716 -657 -26 -110 -28 -285 -5 -387
74 -316 304 -559 613 -648 104 -31 351 -33 453 -4 315 87 551 334 626 652 23
101 21 277 -5 386 -74 313 -316 559 -624 638 -92 23 -257 33 -342 20z"/>
<path d="M1825 2157 c-176 -92 -336 -215 -461 -357 -68 -78 -179 -237 -210
-302 l-17 -37 39 -48 c401 -490 1051 -730 1689 -623 413 70 794 288 1069 613
l49 58 -17 37 c-31 65 -142 224 -210 302 -126 143 -301 277 -474 364 l-93 47
-76 -50 c-86 -57 -189 -102 -301 -133 -65 -18 -104 -22 -252 -22 -148 0 -187
4 -252 22 -112 31 -215 76 -300 132 -42 28 -78 50 -80 50 -1 -1 -48 -24 -103
-53z"/>
</g>
</svg>
